<svg width="723" height="562" viewBox="0 0 723 562" fill="none" xmlns="http://www.w3.org/2000/svg">
<g clip-path="url(#clip0)">
<path d="M411.68 274.801C427.948 274.801 441.137 261.601 441.137 245.317C441.137 229.033 427.948 215.833 411.68 215.833C395.411 215.833 382.222 229.033 382.222 245.317C382.222 261.601 395.411 274.801 411.68 274.801Z" fill="#E6E6E6"/>
<path d="M483.874 283.206L453.091 252.394C455.45 248.721 457.049 244.61 457.793 240.307C458.537 236.004 458.41 231.595 457.42 227.341C456.43 223.088 454.597 219.077 452.03 215.545C449.463 212.014 446.213 209.034 442.475 206.783C435.435 202.573 427.072 201.164 419.043 202.833C411.014 204.502 403.904 209.129 399.121 215.796C394.72 221.973 392.606 229.49 393.143 237.057C393.68 244.624 396.834 251.767 402.063 257.259C407.292 262.751 414.268 266.248 421.794 267.148C429.319 268.049 436.923 266.298 443.299 262.196L474.082 293.007C475.381 294.306 477.142 295.035 478.978 295.034C480.813 295.034 482.574 294.303 483.872 293.004C485.17 291.705 485.899 289.943 485.9 288.105C485.9 286.268 485.172 284.506 483.874 283.206ZM442.149 251.244C438.335 255.062 433.316 257.438 427.948 257.967C422.579 258.496 417.194 257.146 412.708 254.147C408.223 251.147 404.916 246.684 403.35 241.517C401.784 236.35 402.056 230.8 404.121 225.812C406.185 220.824 409.913 216.706 414.671 214.161C419.428 211.616 424.92 210.8 430.211 211.854C435.501 212.907 440.263 215.764 443.685 219.937C447.108 224.111 448.978 229.343 448.978 234.742C448.982 237.808 448.381 240.843 447.209 243.675C446.037 246.507 444.317 249.079 442.149 251.244Z" fill="#3F3D56"/>
<path d="M707.021 328.654C785.746 415.794 557.534 541.377 373.134 541.377C188.734 541.377 61.1574 444.073 39.2476 328.654C-13.8762 48.8031 491.875 -129.069 373.134 115.932C200.055 473.048 645.023 260.029 707.021 328.654Z" fill="#E6E6E6"/>
<path d="M671.698 349.278C750.423 436.418 522.212 562 337.811 562C153.411 562 25.8348 464.696 3.92498 349.278C-49.1988 69.4266 456.553 -108.445 337.811 136.555C164.732 493.671 609.7 280.653 671.698 349.278Z" fill="#3F3D56"/>
<path d="M110.084 144.972C54.8432 142.538 12.0116 130.611 12.5743 117.82C12.9117 110.151 28.5455 103.984 55.4668 100.901C55.5632 100.89 55.6609 100.897 55.7543 100.923C55.8478 100.95 55.9351 100.994 56.0113 101.054C56.0874 101.115 56.151 101.189 56.1982 101.274C56.2454 101.359 56.2754 101.452 56.2865 101.549C56.2975 101.645 56.2893 101.743 56.2625 101.836C56.2356 101.93 56.1906 102.017 56.1299 102.093C56.0693 102.169 55.9943 102.232 55.9092 102.278C55.8241 102.325 55.7306 102.354 55.6341 102.365C30.2742 105.269 14.338 111.216 14.0447 117.884C13.5358 129.452 57.5461 141.182 110.149 143.501C162.752 145.819 207.622 138.005 208.131 126.438C208.425 119.741 192.974 112.395 167.806 107.267C167.711 107.247 167.621 107.21 167.54 107.156C167.46 107.102 167.391 107.032 167.337 106.952C167.284 106.871 167.247 106.78 167.228 106.685C167.21 106.59 167.21 106.492 167.23 106.397C167.249 106.302 167.287 106.212 167.341 106.132C167.395 106.052 167.465 105.983 167.545 105.929C167.626 105.876 167.717 105.839 167.812 105.821C167.907 105.803 168.005 105.803 168.1 105.823C194.813 111.267 209.94 118.804 209.601 126.503C209.039 139.294 165.325 147.407 110.084 144.972Z" fill="#6C63FF"/>
<path d="M61.022 147.115C65.6432 155.901 72.4889 163.319 80.874 168.626C89.2591 173.933 98.8896 176.943 108.802 177.355C118.714 177.767 128.561 175.566 137.357 170.973C146.152 166.38 153.588 159.555 158.921 151.182C126.238 151.622 93.556 150.265 61.022 147.115Z" fill="#6C63FF"/>
<path d="M165.032 135.688C167.813 127.338 168.615 118.455 167.373 109.742C166.131 101.029 162.88 92.7244 157.877 85.4861C152.874 78.2479 146.257 72.2744 138.549 68.0386C130.84 63.8027 122.253 61.4207 113.466 61.0811C104.679 60.7414 95.9336 62.4535 87.922 66.0818C79.9104 69.71 72.8524 75.1549 67.3068 81.9854C61.7611 88.816 57.8799 96.8447 55.9704 105.436C54.0609 114.028 54.1755 122.946 56.3051 131.486C92.2133 137.587 128.761 138.999 165.032 135.688Z" fill="#6C63FF"/>
<path d="M124.242 97.6674C127.9 97.6674 130.865 94.6995 130.865 91.0384C130.865 87.3773 127.9 84.4094 124.242 84.4094C120.585 84.4094 117.62 87.3773 117.62 91.0384C117.62 94.6995 120.585 97.6674 124.242 97.6674Z" fill="white"/>
<path d="M90.1561 123.44C96.2524 123.44 101.194 118.493 101.194 112.392C101.194 106.29 96.2524 101.343 90.1561 101.343C84.0598 101.343 79.1178 106.29 79.1178 112.392C79.1178 118.493 84.0598 123.44 90.1561 123.44Z" fill="white"/>
<path d="M256.755 112.617C260.819 112.617 264.113 109.32 264.113 105.252C264.113 101.184 260.819 97.8867 256.755 97.8867C252.691 97.8867 249.396 101.184 249.396 105.252C249.396 109.32 252.691 112.617 256.755 112.617Z" fill="#6C63FF"/>
<path d="M90.4441 338.003C92.8826 338.003 94.8594 336.024 94.8594 333.583C94.8594 331.142 92.8826 329.164 90.4441 329.164C88.0055 329.164 86.0287 331.142 86.0287 333.583C86.0287 336.024 88.0055 338.003 90.4441 338.003Z" fill="#E6E6E6"/>
<path d="M399.517 489.732C401.955 489.732 403.932 487.754 403.932 485.313C403.932 482.872 401.955 480.894 399.517 480.894C397.078 480.894 395.101 482.872 395.101 485.313C395.101 487.754 397.078 489.732 399.517 489.732Z" fill="#E6E6E6"/>
<path d="M111.785 252.562C113.004 252.562 113.993 251.573 113.993 250.353C113.993 249.132 113.004 248.143 111.785 248.143C110.566 248.143 109.577 249.132 109.577 250.353C109.577 251.573 110.566 252.562 111.785 252.562Z" fill="#E6E6E6"/>
<path d="M294.285 417.55C295.504 417.55 296.493 416.561 296.493 415.341C296.493 414.12 295.504 413.131 294.285 413.131C293.066 413.131 292.077 414.12 292.077 415.341C292.077 416.561 293.066 417.55 294.285 417.55Z" fill="#E6E6E6"/>
<path d="M626.17 396.19C627.389 396.19 628.378 395.201 628.378 393.981C628.378 392.76 627.389 391.771 626.17 391.771C624.951 391.771 623.962 392.76 623.962 393.981C623.962 395.201 624.951 396.19 626.17 396.19Z" fill="#E6E6E6"/>
<path d="M522.41 461.743C523.629 461.743 524.618 460.754 524.618 459.534C524.618 458.313 523.629 457.324 522.41 457.324C521.191 457.324 520.202 458.313 520.202 459.534C520.202 460.754 521.191 461.743 522.41 461.743Z" fill="#E6E6E6"/>
<path d="M414.235 382.196C415.454 382.196 416.442 381.206 416.442 379.986C416.442 378.766 415.454 377.776 414.235 377.776C413.015 377.776 412.027 378.766 412.027 379.986C412.027 381.206 413.015 382.196 414.235 382.196Z" fill="#E6E6E6"/>
<path d="M274.416 164.176C275.635 164.176 276.624 163.187 276.624 161.967C276.624 160.746 275.635 159.757 274.416 159.757C273.197 159.757 272.208 160.746 272.208 161.967C272.208 163.187 273.197 164.176 274.416 164.176Z" fill="#E6E6E6"/>
<path d="M292.077 55.1665C293.296 55.1665 294.285 54.1772 294.285 52.9568C294.285 51.7364 293.296 50.7471 292.077 50.7471C290.858 50.7471 289.87 51.7364 289.87 52.9568C289.87 54.1772 290.858 55.1665 292.077 55.1665Z" fill="#E6E6E6"/>
<path d="M281.775 514.039C282.994 514.039 283.983 513.049 283.983 511.829C283.983 510.609 282.994 509.619 281.775 509.619C280.556 509.619 279.567 510.609 279.567 511.829C279.567 513.049 280.556 514.039 281.775 514.039Z" fill="#E6E6E6"/>
<path d="M172.863 467.636C174.083 467.636 175.071 466.647 175.071 465.426C175.071 464.206 174.083 463.216 172.863 463.216C171.644 463.216 170.656 464.206 170.656 465.426C170.656 466.647 171.644 467.636 172.863 467.636Z" fill="#E6E6E6"/>
<path d="M517.995 388.088C519.214 388.088 520.202 387.099 520.202 385.879C520.202 384.658 519.214 383.669 517.995 383.669C516.775 383.669 515.787 384.658 515.787 385.879C515.787 387.099 516.775 388.088 517.995 388.088Z" fill="#E6E6E6"/>
<path d="M109.186 172.205C112.844 172.205 115.809 169.237 115.809 165.576C115.809 161.915 112.844 158.947 109.186 158.947C105.529 158.947 102.563 161.915 102.563 165.576C102.563 169.237 105.529 172.205 109.186 172.205Z" fill="white"/>
<path d="M258.962 267.294C258.962 287.092 228.379 333.227 219.442 346.286C219.172 346.681 218.81 347.004 218.388 347.227C217.965 347.451 217.495 347.567 217.017 347.567C216.539 347.567 216.068 347.451 215.646 347.227C215.223 347.004 214.861 346.681 214.592 346.286C205.654 333.227 175.071 287.092 175.071 267.294C175.071 261.78 176.156 256.321 178.264 251.227C180.372 246.133 183.462 241.505 187.357 237.607C191.252 233.708 195.876 230.616 200.965 228.506C206.054 226.396 211.508 225.31 217.017 225.31C222.525 225.31 227.98 226.396 233.069 228.506C238.158 230.616 242.782 233.708 246.677 237.607C250.572 241.505 253.661 246.133 255.769 251.227C257.877 256.321 258.962 261.78 258.962 267.294Z" fill="white"/>
<path d="M217.017 285.707C228.803 285.707 238.357 276.144 238.357 264.347C238.357 252.551 228.803 242.987 217.017 242.987C205.231 242.987 195.676 252.551 195.676 264.347C195.676 276.144 205.231 285.707 217.017 285.707Z" fill="#6C63FF"/>
<path d="M216.649 370.411C230.264 370.411 241.301 368.267 241.301 365.623C241.301 362.979 230.264 360.836 216.649 360.836C203.034 360.836 191.997 362.979 191.997 365.623C191.997 368.267 203.034 370.411 216.649 370.411Z" fill="white"/>
<path d="M601.112 234.164C600.925 234.527 600.768 234.903 600.64 235.29L565.477 245.069L559.141 238.863L548.532 247.21L558.683 259.289C559.503 260.265 560.617 260.948 561.858 261.236C563.099 261.524 564.4 261.401 565.566 260.886L603.55 244.104C604.838 244.999 606.369 245.481 607.937 245.484C609.506 245.488 611.039 245.013 612.331 244.124C613.624 243.234 614.615 241.972 615.173 240.504C615.731 239.037 615.83 237.434 615.456 235.91C615.082 234.385 614.253 233.01 613.08 231.968C611.906 230.926 610.444 230.267 608.886 230.077C607.329 229.888 605.751 230.178 604.362 230.908C602.974 231.638 601.84 232.774 601.112 234.164H601.112Z" fill="#FFB8B8"/>
<path d="M564.238 245.642L551.04 255.924C550.664 256.217 550.23 256.425 549.767 256.535C549.304 256.644 548.823 256.652 548.356 256.559C547.89 256.465 547.449 256.272 547.063 255.993C546.678 255.713 546.357 255.354 546.123 254.94L537.92 240.409C536.435 238.478 535.776 236.036 536.088 233.618C536.399 231.201 537.656 229.006 539.581 227.515C541.507 226.024 543.946 225.358 546.361 225.663C548.777 225.969 550.973 227.22 552.468 229.144L564.491 240.63C564.836 240.959 565.105 241.358 565.281 241.801C565.457 242.243 565.536 242.718 565.512 243.194C565.488 243.67 565.361 244.135 565.142 244.557C564.922 244.98 564.614 245.35 564.238 245.642V245.642Z" fill="#6C63FF"/>
<path d="M604.484 229.301L617.868 235.328C618.429 235.581 618.866 236.046 619.084 236.621C619.302 237.196 619.283 237.834 619.031 238.395L617.446 241.921C617.632 242.005 617.778 242.16 617.85 242.352C617.923 242.543 617.917 242.756 617.834 242.943L617.2 244.353C617.115 244.54 616.96 244.685 616.769 244.758C616.578 244.83 616.365 244.824 616.178 244.741L615.544 246.151C615.731 246.236 615.876 246.391 615.949 246.582C616.021 246.774 616.015 246.986 615.932 247.173L615.298 248.583C615.214 248.77 615.059 248.916 614.867 248.988C614.676 249.061 614.464 249.055 614.277 248.971L605.72 268.008C605.467 268.569 605.003 269.007 604.428 269.225C603.854 269.444 603.216 269.424 602.655 269.172L589.271 263.145C588.711 262.892 588.273 262.428 588.055 261.852C587.837 261.277 587.856 260.639 588.109 260.078L601.42 230.465C601.672 229.904 602.136 229.466 602.711 229.248C603.286 229.03 603.923 229.049 604.484 229.301Z" fill="#3F3D56"/>
<path d="M591.701 261.269L602.438 266.109C602.976 266.35 603.588 266.368 604.139 266.159C604.69 265.951 605.137 265.532 605.381 264.996L610.34 253.955L612.063 250.128L616.551 240.139C616.791 239.601 616.808 238.991 616.6 238.44C616.392 237.89 615.974 237.444 615.439 237.201L612.063 235.678L604.694 232.361C604.156 232.121 603.545 232.104 602.994 232.314C602.444 232.524 602 232.944 601.759 233.482L597.417 243.139L592.474 254.133L590.589 258.331C590.348 258.868 590.33 259.479 590.539 260.03C590.747 260.581 591.165 261.026 591.701 261.269Z" fill="#F2F2F2"/>
<path d="M569.266 398.065L578.288 398.064L582.58 363.234L569.264 363.235L569.266 398.065Z" fill="#FFB8B8"/>
<path d="M566.965 395.116L584.732 395.116H584.732C586.219 395.116 587.692 395.409 589.065 395.978C590.439 396.548 591.687 397.383 592.739 398.435C593.79 399.487 594.624 400.737 595.193 402.112C595.762 403.487 596.055 404.96 596.055 406.448V406.817L566.965 406.818L566.965 395.116Z" fill="#2F2E41"/>
<path d="M592.814 395.855L601.836 395.854L606.128 361.024L592.812 361.025L592.814 395.855Z" fill="#FFB8B8"/>
<path d="M590.513 392.907L608.28 392.906H608.281C609.768 392.906 611.24 393.199 612.614 393.769C613.988 394.338 615.236 395.173 616.287 396.225C617.339 397.278 618.173 398.527 618.742 399.902C619.311 401.277 619.604 402.751 619.604 404.239V404.607L590.513 404.608L590.513 392.907Z" fill="#2F2E41"/>
<path d="M528.798 316.333C530.72 322.036 534.366 327 539.231 330.538C544.095 334.076 549.939 336.013 555.952 336.08L556.408 336.088C561.066 336.22 566.534 334.718 571.898 332.559C582.495 328.295 592.673 321.467 595.373 319.589L590.796 363.627L588.942 381.481C588.895 381.943 588.945 382.41 589.089 382.851C589.234 383.292 589.469 383.698 589.779 384.043C590.09 384.388 590.469 384.664 590.893 384.853C591.316 385.042 591.775 385.141 592.238 385.142H603.667C604.4 385.142 605.112 384.9 605.692 384.452C606.273 384.004 606.689 383.377 606.875 382.667L625.743 310.743C626.309 308.59 626.355 306.333 625.876 304.159C625.398 301.985 624.409 299.957 622.991 298.241C621.574 296.526 619.768 295.173 617.725 294.295C615.681 293.417 613.458 293.038 611.239 293.191L572.046 295.879L574.783 284.919L539.799 282.592L539.696 282.665C538.857 283.277 538.04 283.918 537.26 284.588C535.31 286.239 533.581 288.135 532.116 290.23C529.496 293.988 527.826 298.326 527.248 302.873C526.67 307.419 527.201 312.038 528.798 316.333Z" fill="#2F2E41"/>
<path d="M528.798 316.333C530.72 322.036 534.366 327 539.231 330.538C544.095 334.076 549.939 336.013 555.952 336.08C561.702 333.168 567.25 329.873 572.561 326.218L571.898 332.56L566.129 388.11C566.082 388.572 566.133 389.039 566.277 389.48C566.421 389.921 566.656 390.327 566.967 390.672C567.277 391.017 567.656 391.293 568.08 391.482C568.504 391.671 568.962 391.77 569.426 391.771H580.854C581.587 391.771 582.299 391.529 582.88 391.081C583.46 390.633 583.876 390.006 584.062 389.296L590.796 363.627L602.931 317.372C603.497 315.219 603.542 312.962 603.064 310.788C602.585 308.614 601.596 306.586 600.178 304.87C598.761 303.155 596.956 301.802 594.912 300.924C592.868 300.046 590.645 299.667 588.426 299.82L549.233 302.508L551.97 291.548L532.116 290.23C529.496 293.988 527.826 298.327 527.248 302.873C526.67 307.419 527.201 312.038 528.798 316.333Z" fill="#2F2E41"/>
<path d="M537.21 287.129L536.947 287.097L530.843 257.057C530.791 256.796 525.8 230.885 541.099 217.339L541.365 215.485C541.433 215.01 541.603 214.556 541.864 214.154C542.124 213.752 542.469 213.411 542.874 213.155C543.278 212.898 543.734 212.733 544.209 212.67C544.684 212.608 545.166 212.649 545.624 212.791L560.036 217.265C560.852 217.516 561.539 218.074 561.953 218.821C562.367 219.569 562.476 220.447 562.257 221.273L560.856 226.607C562.799 228.89 585.667 256.446 577.701 277.676L574.134 291.635L537.21 287.129Z" fill="#6C63FF"/>
<path d="M597.053 263.684C596.708 263.901 596.381 264.145 596.075 264.413L560.828 254.942L558.524 246.373L545.149 248.164L547.755 263.731C547.966 264.988 548.578 266.143 549.5 267.023C550.423 267.902 551.605 268.459 552.871 268.608L594.104 273.484C594.759 274.91 595.832 276.103 597.181 276.905C598.53 277.706 600.091 278.077 601.656 277.968C603.221 277.86 604.716 277.277 605.942 276.298C607.168 275.318 608.067 273.989 608.519 272.485C608.972 270.982 608.956 269.376 608.475 267.882C607.993 266.388 607.068 265.076 605.824 264.12C604.579 263.165 603.073 262.611 601.506 262.533C599.94 262.455 598.386 262.856 597.053 263.684H597.053Z" fill="#FFB8B8"/>
<path d="M559.47 254.806L542.882 256.944C542.41 257.005 541.931 256.963 541.476 256.822C541.022 256.681 540.603 256.443 540.249 256.125C539.894 255.807 539.613 255.416 539.423 254.98C539.233 254.543 539.139 254.07 539.148 253.594L539.464 236.908C539.167 234.489 539.84 232.051 541.336 230.128C542.832 228.205 545.028 226.955 547.444 226.65C549.86 226.346 552.297 227.013 554.223 228.505C556.148 229.997 557.403 232.192 557.714 234.609L562.234 250.618C562.363 251.076 562.392 251.557 562.319 252.028C562.246 252.498 562.072 252.948 561.81 253.345C561.548 253.743 561.203 254.079 560.799 254.331C560.395 254.583 559.942 254.745 559.47 254.806Z" fill="#6C63FF"/>
<path d="M554.801 208.713C564.783 208.713 572.875 200.614 572.875 190.622C572.875 180.631 564.783 172.532 554.801 172.532C544.819 172.532 536.727 180.631 536.727 190.622C536.727 200.614 544.819 208.713 554.801 208.713Z" fill="#FFB8B8"/>
<path d="M553.85 192.133L551.587 188.009C547.301 205.489 554.872 219.956 554.872 219.956L525.486 206.255L525.766 201.394L522.858 204.696L518.68 202.392L518.128 199.239L514.975 200.021L526.486 179.112C537.659 159.216 553.902 166.812 553.902 166.812C579.743 165.582 576.587 191.1 576.587 191.1L553.85 192.133Z" fill="#2F2E41"/>
<path d="M348.104 326.946C352.271 324.272 347.204 308.918 336.785 292.651C326.366 276.384 314.542 265.365 310.375 268.039C306.208 270.712 311.276 286.067 321.694 302.334C332.113 318.601 343.937 329.62 348.104 326.946Z" fill="#3F3D56"/>
</g>
<defs>
<clipPath id="clip0">
<rect width="723" height="562" fill="white"/>
</clipPath>
</defs>
</svg>

